<?xml version="1.0" standalone="no"?>
<!DOCTYPE svg PUBLIC "-//W3C//DTD SVG 20010904//EN"
 "http://www.w3.org/TR/2001/REC-SVG-20010904/DTD/svg10.dtd">
<svg version="1.0" xmlns="http://www.w3.org/2000/svg"
 width="423.000000pt" height="222.000000pt" viewBox="0 0 423.000000 222.000000"
 preserveAspectRatio="xMidYMid meet">

<g transform="translate(0.000000,222.000000) scale(0.100000,-0.100000)"
fill="#000000" stroke="none">
<path d="M793 2026 c-112 -26 -212 -92 -286 -189 -15 -20 -50 -51 -77 -69 -57
-37 -90 -100 -90 -170 0 -38 -5 -49 -39 -80 -57 -55 -85 -138 -78 -232 6 -79
37 -155 79 -192 12 -12 46 -27 73 -34 28 -7 73 -26 101 -42 28 -15 57 -28 66
-28 23 0 46 -31 64 -88 14 -43 15 -59 6 -91 -7 -21 -12 -52 -12 -69 0 -17 -4
-42 -10 -57 -5 -14 -14 -49 -19 -78 -29 -176 -44 -228 -70 -246 -14 -10 -39
-21 -56 -25 -53 -12 -255 -116 -255 -132 0 -17 37 -19 77 -3 35 13 154 37 253
49 41 5 104 14 140 20 117 18 492 12 678 -10 92 -11 180 -25 196 -30 16 -6 45
-10 66 -10 20 0 45 -7 56 -15 21 -16 94 -21 94 -6 0 21 -148 98 -240 126 -30
9 -71 23 -90 30 -19 7 -78 21 -131 31 l-97 18 -15 75 c-9 42 -19 96 -22 120
-9 71 -16 77 -92 85 -42 4 -90 18 -128 36 -63 30 -185 132 -185 155 0 7 -7 15
-15 19 -18 7 -20 26 -2 26 7 0 33 -10 57 -21 57 -28 140 -55 215 -70 80 -17
343 -18 371 -2 29 17 38 74 39 243 1 145 6 166 38 176 11 3 42 27 69 52 l48
45 0 87 c0 163 -42 241 -148 276 -64 20 -92 40 -92 62 0 9 -5 30 -11 47 -10
28 -8 37 30 98 22 37 41 77 41 90 0 22 -2 22 -137 22 -76 0 -196 3 -268 7 -98
6 -145 4 -192 -6z m478 -327 c10 -5 31 -9 47 -9 62 0 121 -106 104 -186 -7
-31 -12 -38 -28 -36 -10 2 -77 10 -149 19 -120 15 -141 15 -265 -1 -145 -17
-261 -49 -377 -102 l-73 -34 0 -42 c-1 -106 -60 -198 -128 -198 -121 0 -178
230 -85 341 36 42 77 59 112 46 24 -9 35 -5 87 29 32 21 75 47 94 57 19 11 44
26 55 33 11 8 26 14 34 14 8 0 37 11 65 24 48 22 172 51 261 60 59 6 227 -4
246 -15z m93 -365 c20 -8 21 -32 1 -54 -11 -12 -26 -15 -62 -10 -56 6 -61 21
-18 50 31 21 52 24 79 14z"/>
<path d="M3260 1293 c-62 -24 -144 -154 -155 -247 -17 -139 91 -217 220 -157
51 24 77 52 110 123 44 93 26 107 -106 91 -115 -15 -154 -40 -113 -73 12 -11
28 -11 76 -2 34 6 63 10 64 9 2 -1 -4 -16 -12 -33 -28 -57 -113 -84 -149 -47
-13 13 -16 30 -13 79 4 69 41 141 90 177 27 20 28 20 68 2 46 -21 75 -13 75
21 0 34 -110 75 -155 57z"/>
<path d="M2099 1238 c-17 -24 -51 -77 -77 -118 -25 -41 -50 -78 -56 -81 -15
-11 -39 -81 -40 -119 -1 -31 2 -35 24 -35 16 0 31 10 45 31 11 18 25 38 30 47
6 9 32 17 65 20 l56 5 24 -46 c31 -58 54 -73 76 -51 14 15 14 22 -4 80 -11 35
-30 111 -42 169 -19 95 -39 140 -61 140 -5 0 -23 -19 -40 -42z m40 -169 c1 -4
-15 -9 -34 -11 -20 -2 -34 -2 -32 1 1 4 11 23 22 44 l19 38 12 -33 c7 -18 13
-36 13 -39z"/>
<path d="M2959 1264 c-19 -23 1 -49 37 -49 20 0 30 6 32 18 8 40 -43 63 -69
31z"/>
<path d="M2712 1248 c-7 -7 -12 -27 -12 -44 0 -29 -3 -33 -31 -36 -43 -4 -61
-34 -35 -54 11 -8 30 -14 42 -14 30 0 34 -16 34 -125 0 -86 2 -94 20 -100 41
-13 50 10 50 121 l0 104 35 0 c44 0 64 29 36 54 -9 9 -30 16 -44 16 -21 0 -27
5 -27 23 0 27 -26 67 -44 67 -6 0 -17 -5 -24 -12z"/>
<path d="M3864 1169 c-3 -6 -8 -69 -11 -140 -5 -136 0 -159 38 -159 25 0 39
30 39 82 1 69 51 161 80 143 5 -3 11 -41 11 -83 2 -118 8 -137 44 -137 l30 0
-3 115 c-3 90 -7 120 -21 140 -27 38 -64 47 -106 27 -33 -16 -35 -16 -45 3
-12 22 -45 27 -56 9z"/>
<path d="M2352 1158 c-8 -8 -12 -54 -12 -139 0 -133 7 -155 47 -147 15 3 19
17 23 88 6 95 9 104 50 125 27 14 28 14 39 -15 18 -54 71 -33 71 27 0 64 -53
89 -125 59 -29 -13 -35 -13 -46 0 -14 17 -31 18 -47 2z"/>
<path d="M2962 1162 c-8 -6 -15 -47 -19 -123 -6 -122 2 -159 35 -159 36 0 42
20 42 145 0 136 -12 165 -58 137z"/>
<path d="M3579 1147 c-44 -29 -69 -80 -69 -140 0 -40 5 -53 34 -84 30 -33 39
-37 92 -40 92 -6 171 44 132 84 -17 16 -20 16 -53 0 -37 -18 -100 -23 -109 -9
-3 5 29 25 69 45 56 28 76 43 81 62 10 41 -3 71 -40 89 -48 22 -97 20 -137 -7z
m96 -57 c7 -11 -71 -53 -88 -47 -17 5 39 57 62 57 11 0 22 -4 26 -10z"/>
</g>
</svg>
